<svg xmlns="http://www.w3.org/2000/svg" xmlns:xlink="http://www.w3.org/1999/xlink" width="500" zoomAndPan="magnify" viewBox="0 0 375 374.999991" height="500" preserveAspectRatio="xMidYMid meet" version="1.0"><defs><g/><clipPath id="93142e944c"><path d="M 125.21875 7 L 279 7 L 279 166.851562 L 125.21875 166.851562 Z M 125.21875 7 " clip-rule="nonzero"/></clipPath></defs><g clip-path="url(#93142e944c)"><path fill="#481b21" d="M 237.164062 23.71875 C 236.695312 22.996094 236.695312 22.046875 236.921875 21.335938 C 237.164062 20.148438 238.355469 18.488281 242.152344 18.488281 C 246.191406 18.730469 254.03125 18.488281 257.828125 18.488281 C 258.539062 18.488281 259.019531 18.488281 259.246094 18.488281 C 260.4375 16.828125 263.765625 12.550781 264.71875 11.359375 C 266.617188 8.75 270.175781 6.128906 273.023438 7.800781 C 275.402344 9.21875 275.402344 12.082031 273.023438 16.347656 C 271.847656 18.488281 259.246094 36.304688 256.171875 40.570312 C 256.171875 40.8125 256.398438 41.519531 256.636719 42.242188 C 256.878906 43.191406 257.347656 44.609375 257.347656 45.09375 C 257.585938 46.042969 258.070312 48.183594 256.636719 49.601562 C 256.171875 50.066406 255.449219 50.550781 254.496094 50.550781 C 254.03125 50.550781 253.320312 50.308594 252.839844 50.066406 L 247.382812 45.09375 C 246.660156 44.371094 246.660156 43.421875 247.382812 42.710938 C 248.089844 42.003906 249.039062 42.003906 249.75 42.710938 L 254.269531 46.75 C 254.269531 46.511719 254.269531 46.511719 254.269531 46.269531 C 254.03125 45.800781 253.789062 44.609375 253.546875 43.421875 C 253.082031 42.003906 253.082031 41.519531 253.082031 41.28125 C 253.082031 40.8125 252.839844 39.863281 253.546875 39.152344 C 257.585938 33.683594 269.464844 16.828125 270.414062 14.917969 C 272.074219 12.082031 271.847656 11.117188 271.605469 10.890625 C 271.125 10.648438 269.222656 11.601562 267.808594 13.5 C 266.617188 15.15625 261.628906 21.335938 261.628906 21.335938 C 261.160156 21.820312 260.675781 22.046875 259.96875 22.046875 C 259.96875 22.046875 259.019531 22.046875 257.828125 22.046875 C 254.03125 22.046875 245.949219 22.046875 242.152344 22.046875 C 241.671875 22.046875 241.203125 22.046875 240.960938 22.285156 C 244.050781 22.996094 251.890625 25.136719 256.398438 26.328125 C 257.347656 26.566406 257.828125 27.515625 257.585938 28.464844 C 257.347656 29.417969 256.398438 29.882812 255.449219 29.644531 C 250.230469 28.226562 240.011719 25.617188 239.0625 25.375 C 238.355469 24.894531 237.644531 24.425781 237.164062 23.71875 Z M 270.175781 26.328125 C 272.3125 31.074219 274.453125 35.582031 276.59375 40.101562 C 277.542969 42.003906 277.304688 43.902344 276.113281 46.042969 C 275.644531 46.75 275.164062 46.992188 274.453125 47.234375 L 274.214844 47.234375 C 273.746094 47.234375 273.023438 46.992188 272.554688 46.511719 C 272.3125 46.269531 272.3125 46.269531 272.074219 46.042969 C 270.414062 43.902344 268.757812 42.003906 267.324219 39.863281 C 265.90625 37.964844 264.476562 36.304688 263.058594 34.40625 C 262.578125 33.683594 262.578125 32.507812 263.285156 32.023438 C 264.007812 31.554688 265.183594 31.554688 265.667969 32.265625 C 267.085938 34.164062 268.515625 36.0625 269.949219 37.722656 C 271.125 39.378906 272.554688 41.054688 273.972656 42.953125 C 273.972656 42.46875 273.972656 42.003906 273.746094 41.761719 C 271.605469 37.253906 269.464844 32.734375 267.324219 27.984375 C 266.859375 27.035156 267.324219 26.085938 268.273438 25.617188 C 268.757812 25.136719 269.949219 25.617188 270.175781 26.328125 Z M 189.667969 71.214844 C 189.667969 70.265625 190.375 69.554688 191.324219 69.554688 L 202.011719 69.554688 C 218.171875 69.554688 233.363281 62.425781 243.585938 49.839844 C 244.292969 49.117188 245.242188 48.890625 245.949219 49.601562 C 246.660156 50.308594 246.902344 51.257812 246.191406 51.980469 C 235.503906 65.277344 219.347656 72.875 202.253906 72.875 L 191.566406 72.875 C 190.617188 72.875 189.667969 72.164062 189.667969 71.214844 Z M 139.066406 146.507812 C 138.117188 146.507812 137.40625 145.796875 137.40625 144.847656 C 137.40625 143.882812 138.117188 143.175781 139.066406 143.175781 L 167.8125 143.175781 C 168.761719 143.175781 169.46875 143.882812 169.46875 144.847656 C 169.46875 145.796875 168.761719 146.507812 167.8125 146.507812 Z M 173.039062 95.90625 C 173.039062 96.871094 172.316406 97.578125 171.367188 97.578125 L 139.066406 97.578125 C 138.117188 97.578125 137.40625 96.871094 137.40625 95.90625 C 137.40625 94.957031 138.117188 94.246094 139.066406 94.246094 L 171.367188 94.246094 C 172.316406 94.246094 173.039062 94.957031 173.039062 95.90625 Z M 141.449219 163.601562 C 139.789062 163.601562 138.359375 162.421875 138.117188 160.75 L 145.003906 160.75 C 144.777344 162.421875 143.347656 163.601562 141.449219 163.601562 Z M 145.003906 46.042969 L 145.953125 46.042969 L 145.953125 78.101562 L 145.003906 78.101562 Z M 146.675781 36.773438 L 167.8125 36.773438 C 168.761719 36.773438 169.46875 37.722656 169.46875 38.671875 L 169.46875 42.46875 L 145.003906 42.46875 L 145.003906 38.671875 C 145.003906 37.496094 145.726562 36.773438 146.675781 36.773438 Z M 168.761719 78.101562 L 168.761719 46.042969 L 169.710938 46.042969 L 169.710938 78.101562 Z M 165.203125 46.042969 L 165.203125 78.101562 L 149.527344 78.101562 L 149.527344 46.042969 Z M 168.761719 157.191406 L 135.992188 157.191406 C 132.191406 157.191406 128.859375 154.101562 128.859375 150.0625 L 128.859375 88.324219 C 128.859375 84.511719 131.949219 81.191406 135.992188 81.191406 L 179.6875 81.191406 C 183.488281 81.191406 186.816406 84.042969 186.816406 87.839844 L 186.816406 91.15625 C 186.816406 92.121094 187.527344 92.828125 188.476562 92.828125 C 189.425781 92.828125 190.132812 92.121094 190.132812 91.15625 L 190.132812 87.839844 C 190.132812 82.382812 185.386719 77.863281 179.6875 77.863281 L 173.269531 77.863281 L 173.269531 38.671875 C 173.269531 35.824219 170.902344 33.457031 168.050781 33.457031 L 146.90625 33.457031 C 144.054688 33.457031 141.6875 35.824219 141.6875 38.671875 L 141.6875 78.101562 L 136.21875 78.101562 C 130.519531 78.101562 125.769531 82.851562 125.769531 88.550781 L 125.769531 150.304688 C 125.769531 155.519531 129.8125 159.800781 134.800781 160.511719 C 135.027344 164.082031 138.117188 166.929688 141.6875 166.929688 C 145.246094 166.929688 148.335938 164.082031 148.578125 160.511719 L 169 160.511719 C 169.949219 160.511719 170.660156 159.800781 170.660156 158.851562 C 170.660156 158.144531 169.710938 157.191406 168.761719 157.191406 Z M 249.507812 146.023438 L 246.902344 146.023438 L 246.902344 143.65625 L 249.507812 143.65625 Z M 251.179688 140.328125 L 245.242188 140.328125 C 244.292969 140.328125 243.585938 141.035156 243.585938 141.984375 L 243.585938 147.695312 C 243.585938 148.644531 244.292969 149.355469 245.242188 149.355469 L 251.179688 149.355469 C 252.132812 149.355469 252.839844 148.644531 252.839844 147.695312 L 252.839844 141.984375 C 252.839844 141.035156 252.132812 140.328125 251.179688 140.328125 Z M 233.363281 132.730469 L 230.757812 132.730469 L 230.757812 130.347656 L 233.363281 130.347656 Z M 235.023438 126.789062 L 229.085938 126.789062 C 228.132812 126.789062 227.425781 127.511719 227.425781 128.460938 L 227.425781 134.160156 C 227.425781 135.109375 228.132812 135.820312 229.085938 135.820312 L 235.023438 135.820312 C 235.972656 135.820312 236.695312 135.109375 236.695312 134.160156 L 236.695312 128.460938 C 236.695312 127.738281 235.972656 126.789062 235.023438 126.789062 Z M 249.507812 135.578125 L 243.8125 135.578125 L 243.8125 130.105469 L 249.507812 130.105469 Z M 251.179688 126.789062 L 242.152344 126.789062 C 241.203125 126.789062 240.496094 127.511719 240.496094 128.460938 L 240.496094 137.25 C 240.496094 138.199219 241.203125 138.894531 242.152344 138.894531 L 251.179688 138.894531 C 252.132812 138.894531 252.839844 138.199219 252.839844 137.25 L 252.839844 128.460938 C 252.839844 127.738281 252.132812 126.789062 251.179688 126.789062 Z M 249.507812 121.320312 L 243.8125 121.320312 L 245.710938 119.660156 C 246.433594 118.953125 246.433594 118.003906 245.710938 117.292969 C 245 116.570312 244.050781 116.570312 243.34375 117.292969 L 239.304688 121.320312 L 237.402344 121.320312 L 240.960938 117.761719 C 241.671875 117.054688 241.671875 116.101562 240.960938 115.394531 C 240.253906 114.671875 239.304688 114.671875 238.59375 115.394531 L 232.65625 121.320312 L 231.222656 121.320312 L 231.222656 113.253906 L 249.992188 113.253906 L 249.992188 121.320312 Z M 251.179688 109.921875 L 229.085938 109.921875 C 228.132812 109.921875 227.425781 110.632812 227.425781 111.582031 L 227.425781 123.234375 C 227.425781 124.183594 228.132812 124.890625 229.085938 124.890625 L 251.179688 124.890625 C 252.132812 124.890625 252.839844 124.183594 252.839844 123.234375 L 252.839844 111.582031 C 252.839844 110.632812 252.132812 109.921875 251.179688 109.921875 Z M 262.109375 104.226562 L 262.109375 157.433594 C 262.109375 158.382812 261.386719 159.09375 260.4375 159.09375 C 259.488281 159.09375 258.777344 158.382812 258.777344 157.433594 L 258.777344 104.226562 C 258.777344 103.277344 259.488281 102.566406 260.4375 102.566406 C 261.386719 102.566406 262.109375 103.277344 262.109375 104.226562 Z M 194.414062 104.226562 L 194.414062 157.433594 C 194.414062 158.382812 193.691406 159.09375 192.757812 159.09375 C 191.808594 159.09375 191.085938 158.382812 191.085938 157.433594 L 191.085938 104.226562 C 191.085938 103.277344 191.808594 102.566406 192.757812 102.566406 C 193.691406 102.566406 194.414062 103.277344 194.414062 104.226562 Z M 274.453125 154.570312 C 274.453125 159.09375 270.898438 162.664062 266.375 162.664062 L 187.527344 162.664062 C 183.019531 162.664062 179.449219 159.09375 179.449219 154.570312 L 179.449219 108.746094 C 179.449219 104.226562 183.019531 100.667969 187.527344 100.667969 L 266.617188 100.667969 C 271.125 100.667969 274.695312 104.226562 274.695312 108.746094 L 274.695312 154.570312 Z M 240.496094 97.335938 L 214.839844 97.335938 L 214.839844 93.3125 C 214.839844 92.347656 215.789062 91.398438 216.738281 91.398438 L 238.59375 91.398438 C 239.542969 91.398438 240.496094 92.347656 240.496094 93.3125 Z M 208.902344 90.691406 C 208.902344 88.082031 211.039062 85.941406 213.648438 85.941406 L 241.671875 85.941406 C 244.292969 85.941406 246.433594 88.082031 246.433594 90.691406 L 246.433594 97.335938 L 244.050781 97.335938 L 244.050781 93.3125 C 244.050781 90.449219 241.671875 88.082031 238.820312 88.082031 L 216.980469 88.082031 C 214.132812 88.082031 211.75 90.449219 211.75 93.3125 L 211.75 97.335938 L 208.902344 97.335938 Z M 266.617188 97.335938 L 249.75 97.335938 L 249.75 90.691406 C 249.75 86.183594 246.191406 82.609375 241.671875 82.609375 L 213.40625 82.609375 C 208.902344 82.609375 205.34375 86.183594 205.34375 90.691406 L 205.34375 97.335938 L 187.527344 97.335938 C 181.347656 97.335938 176.132812 102.566406 176.132812 108.746094 L 176.132812 154.570312 C 176.132812 160.75 181.347656 165.980469 187.527344 165.980469 L 266.617188 165.980469 C 272.796875 165.980469 278.011719 160.75 278.011719 154.570312 L 278.011719 108.746094 C 278.011719 102.328125 272.796875 97.335938 266.617188 97.335938 " fill-opacity="1" fill-rule="nonzero"/></g><g fill="#481b21" fill-opacity="1"><g transform="translate(34.559882, 311.012656)"><g><path d="M 21.234375 17.625 C 20.109375 17.625 19.472656 17.128906 19.328125 16.140625 C 19.046875 15.429688 18.9375 14.722656 19 14.015625 C 19.070312 13.304688 19.179688 12.597656 19.328125 11.890625 L 24.421875 -18.90625 C 26.691406 -32.21875 29.171875 -45.421875 31.859375 -58.515625 C 34.546875 -71.617188 37.519531 -84.753906 40.78125 -97.921875 C 40.925781 -98.484375 41.066406 -99.082031 41.203125 -99.71875 C 41.347656 -100.363281 41.488281 -101.109375 41.625 -101.953125 C 42.050781 -103.515625 41.488281 -104.296875 39.9375 -104.296875 L 39.296875 -104.296875 C 36.742188 -103.867188 34.15625 -103.40625 31.53125 -102.90625 C 28.914062 -102.414062 26.335938 -101.816406 23.796875 -101.109375 C 20.671875 -100.535156 17.625 -99.96875 14.65625 -99.40625 C 11.6875 -98.84375 8.710938 -98.207031 5.734375 -97.5 C 2.765625 -96.789062 -0.203125 -96.113281 -3.171875 -95.46875 C -6.148438 -94.832031 -9.195312 -94.160156 -12.3125 -93.453125 C -12.601562 -93.316406 -12.925781 -93.25 -13.28125 -93.25 C -13.632812 -93.25 -13.953125 -93.175781 -14.234375 -93.03125 C -14.660156 -92.894531 -15.296875 -92.828125 -16.140625 -92.828125 C -16.710938 -92.828125 -17.347656 -92.929688 -18.046875 -93.140625 C -18.753906 -93.347656 -19.109375 -93.804688 -19.109375 -94.515625 C -18.972656 -94.660156 -18.90625 -95.015625 -18.90625 -95.578125 C -18.90625 -95.859375 -18.765625 -96.144531 -18.484375 -96.4375 C -18.054688 -96.71875 -17.628906 -97 -17.203125 -97.28125 C -16.773438 -97.5625 -16.28125 -97.773438 -15.71875 -97.921875 C -15.15625 -98.054688 -14.625 -98.160156 -14.125 -98.234375 C -13.625 -98.304688 -13.09375 -98.414062 -12.53125 -98.5625 L 19.96875 -105.5625 C 23.21875 -106.269531 26.503906 -106.976562 29.828125 -107.6875 C 33.160156 -108.394531 36.457031 -109.035156 39.71875 -109.609375 C 41.132812 -109.890625 42.265625 -110.347656 43.109375 -110.984375 C 43.960938 -111.617188 44.53125 -112.71875 44.8125 -114.28125 C 45.101562 -115.40625 45.390625 -116.535156 45.671875 -117.671875 C 45.953125 -118.804688 46.234375 -119.941406 46.515625 -121.078125 C 46.941406 -122.628906 47.929688 -123.40625 49.484375 -123.40625 C 50.765625 -122.84375 51.265625 -121.640625 50.984375 -119.796875 L 50.125 -115.125 C 49.84375 -113.988281 49.878906 -113.207031 50.234375 -112.78125 C 50.585938 -112.363281 51.472656 -112.15625 52.890625 -112.15625 L 53.734375 -112.15625 C 54.441406 -112.289062 55.148438 -112.425781 55.859375 -112.5625 C 56.566406 -112.707031 57.347656 -112.851562 58.203125 -113 C 59.046875 -113.144531 59.890625 -113.25 60.734375 -113.3125 C 61.585938 -113.382812 62.515625 -113.492188 63.515625 -113.640625 C 67.191406 -113.921875 70.832031 -114.273438 74.4375 -114.703125 C 78.050781 -115.128906 81.703125 -115.550781 85.390625 -115.96875 C 89.066406 -116.257812 92.710938 -116.613281 96.328125 -117.03125 C 99.941406 -117.457031 103.515625 -117.8125 107.046875 -118.09375 L 111.9375 -118.09375 C 113.070312 -117.957031 113.707031 -117.320312 113.84375 -116.1875 C 113.988281 -114.914062 113.492188 -113.992188 112.359375 -113.421875 L 109.609375 -112.78125 C 107.191406 -112.644531 104.707031 -112.46875 102.15625 -112.25 C 99.613281 -112.039062 97.066406 -111.796875 94.515625 -111.515625 C 91.972656 -111.367188 89.425781 -111.117188 86.875 -110.765625 C 84.320312 -110.410156 81.773438 -110.09375 79.234375 -109.8125 C 76.960938 -109.675781 74.726562 -109.460938 72.53125 -109.171875 C 70.34375 -108.890625 68.113281 -108.609375 65.84375 -108.328125 C 63.582031 -108.046875 61.316406 -107.757812 59.046875 -107.46875 C 56.785156 -107.1875 54.519531 -106.90625 52.25 -106.625 C 49.28125 -106.34375 47.507812 -104.644531 46.9375 -101.53125 C 42.40625 -82.550781 38.332031 -63.644531 34.71875 -44.8125 C 31.113281 -25.976562 27.820312 -6.9375 24.84375 12.3125 C 24.707031 13.164062 24.566406 13.984375 24.421875 14.765625 C 24.285156 15.546875 23.863281 16.21875 23.15625 16.78125 C 22.582031 17.34375 21.941406 17.625 21.234375 17.625 Z M 21.234375 17.625 "/></g></g></g><g fill="#481b21" fill-opacity="1"><g transform="translate(93.18499, 311.012656)"><g><path d="M -0.640625 3.609375 C -0.773438 3.609375 -0.878906 3.609375 -0.953125 3.609375 C -1.023438 3.609375 -1.132812 3.609375 -1.28125 3.609375 C -1.28125 3.472656 -1.421875 3.40625 -1.703125 3.40625 C -3.117188 2.976562 -3.96875 1.914062 -4.25 0.21875 C -4.25 -0.207031 -4.25 -0.632812 -4.25 -1.0625 C -4.25 -1.488281 -4.316406 -1.984375 -4.453125 -2.546875 C -4.453125 -2.972656 -4.453125 -3.394531 -4.453125 -3.8125 C -4.453125 -4.238281 -4.382812 -4.738281 -4.25 -5.3125 C -2.832031 -14.800781 -0.707031 -23.367188 2.125 -31.015625 C 4.957031 -38.660156 8.210938 -46.726562 11.890625 -55.21875 C 12.171875 -55.789062 12.453125 -56.320312 12.734375 -56.8125 C 13.023438 -57.3125 13.3125 -57.773438 13.59375 -58.203125 C 14.019531 -58.628906 14.65625 -58.84375 15.5 -58.84375 L 16.140625 -58.84375 C 17.273438 -58.414062 17.769531 -57.707031 17.625 -56.71875 C 17.625 -55.4375 17.269531 -53.878906 16.5625 -52.046875 C 15.71875 -49.921875 14.832031 -47.796875 13.90625 -45.671875 C 12.988281 -43.546875 12.035156 -41.421875 11.046875 -39.296875 C 9.628906 -36.035156 8.351562 -32.773438 7.21875 -29.515625 C 6.082031 -26.265625 5.09375 -23.007812 4.25 -19.75 C 3.96875 -18.613281 3.71875 -17.476562 3.5 -16.34375 C 3.289062 -15.21875 3.46875 -14.085938 4.03125 -12.953125 L 3.828125 -12.953125 L 4.03125 -12.75 L 12.3125 -29.53125 C 14.019531 -32.78125 16.144531 -36.066406 18.6875 -39.390625 C 21.238281 -42.722656 24.144531 -45.378906 27.40625 -47.359375 C 28.25 -47.785156 29.097656 -48 29.953125 -48 C 31.648438 -48 32.992188 -47.148438 33.984375 -45.453125 C 34.265625 -45.171875 34.507812 -44.816406 34.71875 -44.390625 C 34.9375 -43.960938 35.117188 -43.539062 35.265625 -43.125 C 35.398438 -42.269531 35.753906 -41.414062 36.328125 -40.5625 C 37.878906 -38.019531 39.578125 -36.75 41.421875 -36.75 C 42.691406 -36.75 44.25 -37.3125 46.09375 -38.4375 C 47.9375 -39.570312 49.8125 -40.847656 51.71875 -42.265625 C 53.632812 -43.679688 55.15625 -44.882812 56.28125 -45.875 C 57.132812 -46.726562 58.054688 -47.4375 59.046875 -48 C 59.191406 -48.144531 59.476562 -48.21875 59.90625 -48.21875 C 60.46875 -48.21875 61.03125 -48.003906 61.59375 -47.578125 C 62.445312 -46.722656 62.660156 -45.875 62.234375 -45.03125 C 61.671875 -43.894531 61.035156 -42.972656 60.328125 -42.265625 C 59.046875 -40.992188 57.269531 -39.472656 55 -37.703125 C 52.738281 -35.929688 50.40625 -34.40625 48 -33.125 C 45.59375 -31.851562 43.398438 -31.21875 41.421875 -31.21875 C 37.878906 -31.21875 34.972656 -32.773438 32.703125 -35.890625 C 32.421875 -36.316406 32.140625 -36.742188 31.859375 -37.171875 C 31.578125 -37.597656 31.296875 -38.023438 31.015625 -38.453125 C 30.867188 -38.867188 30.65625 -39.289062 30.375 -39.71875 C 30.09375 -40.144531 29.8125 -40.570312 29.53125 -41 C 28.53125 -41 27.78125 -40.785156 27.28125 -40.359375 C 26.789062 -39.929688 26.332031 -39.4375 25.90625 -38.875 C 23.925781 -36.882812 22.15625 -34.722656 20.59375 -32.390625 C 19.039062 -30.054688 17.628906 -27.6875 16.359375 -25.28125 C 15.503906 -23.582031 14.648438 -21.878906 13.796875 -20.171875 C 12.953125 -18.472656 12.175781 -16.773438 11.46875 -15.078125 C 10.625 -13.378906 9.773438 -11.679688 8.921875 -9.984375 C 8.066406 -8.285156 7.144531 -6.515625 6.15625 -4.671875 C 5.59375 -3.535156 4.992188 -2.4375 4.359375 -1.375 C 3.722656 -0.3125 3.050781 0.78125 2.34375 1.90625 C 1.632812 3.039062 0.640625 3.609375 -0.640625 3.609375 Z M -0.640625 3.609375 "/></g></g></g><g fill="#481b21" fill-opacity="1"><g transform="translate(145.012964, 311.012656)"><g><path d="M 1.0625 -18.265625 C -1.769531 -18.265625 -3.328125 -19.960938 -3.609375 -23.359375 C -3.609375 -26.472656 -2.9375 -29.800781 -1.59375 -33.34375 C -0.25 -36.882812 1.445312 -40.28125 3.5 -43.53125 C 5.550781 -46.789062 7.640625 -49.484375 9.765625 -51.609375 C 10.335938 -52.316406 11.398438 -53.238281 12.953125 -54.375 C 15.222656 -56.21875 17.5625 -57.140625 19.96875 -57.140625 C 22.09375 -57.140625 24.21875 -56.289062 26.34375 -54.59375 C 27.46875 -53.882812 28.101562 -53.53125 28.25 -53.53125 C 28.675781 -53.53125 29.3125 -54.09375 30.15625 -55.21875 C 30.863281 -55.925781 31.535156 -56.707031 32.171875 -57.5625 C 32.816406 -58.414062 33.421875 -59.265625 33.984375 -60.109375 C 34.546875 -60.960938 35.144531 -61.8125 35.78125 -62.65625 C 36.425781 -63.507812 37.03125 -64.359375 37.59375 -65.203125 C 37.875 -65.492188 38.15625 -65.847656 38.4375 -66.265625 C 38.726562 -66.691406 39.015625 -67.117188 39.296875 -67.546875 C 39.578125 -67.828125 39.820312 -68.179688 40.03125 -68.609375 C 40.25 -69.035156 40.5 -69.390625 40.78125 -69.671875 C 41.769531 -70.660156 42.617188 -71.15625 43.328125 -71.15625 C 43.328125 -71.15625 43.753906 -71.015625 44.609375 -70.734375 C 46.023438 -69.878906 46.378906 -68.460938 45.671875 -66.484375 C 45.523438 -65.921875 45.34375 -65.425781 45.125 -65 C 44.914062 -64.570312 44.671875 -64.144531 44.390625 -63.71875 C 43.828125 -62.726562 43.332031 -61.738281 42.90625 -60.75 C 41.632812 -58.0625 40.144531 -54.734375 38.4375 -50.765625 C 36.738281 -46.796875 35.285156 -42.789062 34.078125 -38.75 C 32.878906 -34.71875 32.28125 -31.144531 32.28125 -28.03125 C 32.28125 -26.757812 32.707031 -26.125 33.5625 -26.125 C 33.988281 -26.125 34.269531 -26.195312 34.40625 -26.34375 C 35.394531 -26.757812 36.347656 -27.179688 37.265625 -27.609375 C 38.191406 -28.035156 39.148438 -28.53125 40.140625 -29.09375 C 41.421875 -29.945312 42.734375 -30.832031 44.078125 -31.75 C 45.421875 -32.675781 46.726562 -33.703125 48 -34.828125 C 48.988281 -35.535156 49.910156 -36.316406 50.765625 -37.171875 C 51.617188 -38.023438 52.46875 -38.800781 53.3125 -39.5 C 54.875 -41.0625 56.570312 -42.550781 58.40625 -43.96875 C 58.695312 -44.25 59.019531 -44.53125 59.375 -44.8125 C 59.726562 -45.101562 60.046875 -45.390625 60.328125 -45.671875 C 60.609375 -45.953125 61.171875 -46.375 62.015625 -46.9375 C 62.304688 -47.082031 62.519531 -47.1875 62.65625 -47.25 C 62.800781 -47.320312 62.941406 -47.359375 63.078125 -47.359375 C 63.648438 -47.359375 64.148438 -47.148438 64.578125 -46.734375 C 65.566406 -46.160156 65.847656 -45.097656 65.421875 -43.546875 C 65.273438 -43.398438 65.203125 -43.289062 65.203125 -43.21875 C 65.203125 -43.15625 65.132812 -43.050781 65 -42.90625 C 64.851562 -42.757812 64.707031 -42.613281 64.5625 -42.46875 C 64.425781 -42.332031 64.285156 -42.195312 64.140625 -42.0625 C 62.160156 -40.070312 59.328125 -37.410156 55.640625 -34.078125 C 51.960938 -30.753906 48.175781 -27.75 44.28125 -25.0625 C 40.394531 -22.375 36.960938 -20.742188 33.984375 -20.171875 C 33.703125 -20.035156 33.066406 -19.96875 32.078125 -19.96875 C 28.535156 -19.96875 26.765625 -22.019531 26.765625 -26.125 C 26.765625 -28.957031 27.046875 -31.789062 27.609375 -34.625 C 28.179688 -37.457031 28.820312 -40.289062 29.53125 -43.125 C 27.96875 -42.414062 26.90625 -41.707031 26.34375 -41 C 26.050781 -40.570312 25.691406 -40.144531 25.265625 -39.71875 C 24.847656 -39.289062 24.5 -38.9375 24.21875 -38.65625 C 21.8125 -35.820312 19.398438 -33.09375 16.984375 -30.46875 C 14.578125 -27.851562 12.03125 -25.34375 9.34375 -22.9375 C 8.351562 -22.09375 7.078125 -21.101562 5.515625 -19.96875 C 3.960938 -18.832031 2.476562 -18.265625 1.0625 -18.265625 Z M 2.96875 -25.90625 C 3.820312 -25.90625 4.460938 -26.117188 4.890625 -26.546875 C 8.285156 -29.378906 11.46875 -32.492188 14.4375 -35.890625 C 17.414062 -39.296875 20.320312 -42.765625 23.15625 -46.296875 C 23.289062 -46.441406 23.429688 -46.582031 23.578125 -46.71875 C 23.722656 -46.863281 23.863281 -47.078125 24 -47.359375 C 24.425781 -48.773438 24.144531 -49.769531 23.15625 -50.34375 C 22.019531 -51.050781 21.023438 -51.40625 20.171875 -51.40625 C 19.460938 -51.40625 18.578125 -51.117188 17.515625 -50.546875 C 16.460938 -49.984375 15.648438 -49.421875 15.078125 -48.859375 C 8.421875 -43.046875 4.242188 -35.539062 2.546875 -26.34375 L 2.765625 -26.125 C 2.898438 -26.125 2.96875 -26.050781 2.96875 -25.90625 Z M 2.96875 -25.90625 "/></g></g></g><g fill="#481b21" fill-opacity="1"><g transform="translate(200.027112, 311.012656)"><g><path d="M 6.15625 1.28125 C 3.46875 1.28125 1.695312 -0.5625 0.84375 -4.25 C 0.707031 -4.957031 0.601562 -5.628906 0.53125 -6.265625 C 0.457031 -6.898438 0.421875 -7.503906 0.421875 -8.078125 C 0.285156 -8.640625 0.21875 -9.203125 0.21875 -9.765625 C 0.21875 -10.335938 0.144531 -10.90625 0 -11.46875 C 0.707031 -19.113281 1.800781 -26.546875 3.28125 -33.765625 C 4.769531 -40.992188 7.003906 -48.078125 9.984375 -55.015625 C 10.128906 -55.441406 10.34375 -55.832031 10.625 -56.1875 C 10.90625 -56.539062 11.1875 -56.859375 11.46875 -57.140625 C 11.75 -57.421875 12.175781 -57.5625 12.75 -57.5625 C 13.3125 -57.5625 13.734375 -57.421875 14.015625 -57.140625 C 14.585938 -56.992188 15.015625 -56.5 15.296875 -55.65625 C 15.429688 -54.945312 15.394531 -54.269531 15.1875 -53.625 C 14.976562 -52.988281 14.726562 -52.316406 14.4375 -51.609375 C 11.75 -45.242188 9.625 -38.378906 8.0625 -31.015625 C 6.507812 -23.648438 5.734375 -16.5 5.734375 -9.5625 C 5.734375 -8.851562 5.769531 -8.144531 5.84375 -7.4375 C 5.914062 -6.726562 6.304688 -6.234375 7.015625 -5.953125 C 7.148438 -5.804688 7.503906 -5.734375 8.078125 -5.734375 C 8.785156 -5.734375 9.347656 -6.015625 9.765625 -6.578125 C 9.910156 -6.867188 10.085938 -7.117188 10.296875 -7.328125 C 10.515625 -7.535156 10.691406 -7.785156 10.828125 -8.078125 C 12.523438 -9.773438 14.398438 -12.179688 16.453125 -15.296875 C 18.515625 -18.410156 20.359375 -21.628906 21.984375 -24.953125 C 23.609375 -28.285156 24.632812 -31.082031 25.0625 -33.34375 C 26.050781 -37.03125 27.675781 -39.722656 29.9375 -41.421875 C 32.207031 -43.117188 35.1875 -44.179688 38.875 -44.609375 C 41.707031 -44.890625 44.535156 -45.347656 47.359375 -45.984375 C 50.191406 -46.617188 53.023438 -47.289062 55.859375 -48 C 56.429688 -48.144531 56.925781 -48.25 57.34375 -48.3125 C 57.769531 -48.382812 58.125 -48.421875 58.40625 -48.421875 C 58.550781 -48.421875 59.050781 -48.28125 59.90625 -48 C 60.894531 -47.4375 61.390625 -46.660156 61.390625 -45.671875 C 61.390625 -44.535156 60.960938 -43.753906 60.109375 -43.328125 C 59.546875 -42.898438 58.695312 -42.6875 57.5625 -42.6875 L 40.5625 -39.078125 C 40.28125 -38.941406 39.925781 -38.875 39.5 -38.875 C 39.082031 -38.875 38.660156 -38.800781 38.234375 -38.65625 C 37.804688 -38.519531 37.378906 -38.453125 36.953125 -38.453125 C 36.535156 -38.453125 36.179688 -38.378906 35.890625 -38.234375 C 33.628906 -37.804688 32.144531 -36.53125 31.4375 -34.40625 L 29.53125 -29.09375 C 28.957031 -27.113281 27.820312 -24.457031 26.125 -21.125 C 24.425781 -17.800781 22.441406 -14.40625 20.171875 -10.9375 C 17.910156 -7.46875 15.539062 -4.5625 13.0625 -2.21875 C 10.582031 0.113281 8.28125 1.28125 6.15625 1.28125 Z M 6.15625 1.28125 "/></g></g></g><g fill="#481b21" fill-opacity="1"><g transform="translate(250.793055, 311.012656)"><g><path d="M 9.984375 -8.921875 C 4.179688 -8.921875 0.570312 -11.539062 -0.84375 -16.78125 C -1.269531 -17.914062 -1.625 -19.117188 -1.90625 -20.390625 C -2.195312 -21.660156 -2.269531 -22.863281 -2.125 -24 C -2.269531 -25.84375 -2.164062 -27.539062 -1.8125 -29.09375 C -1.457031 -30.65625 -1.066406 -32.210938 -0.640625 -33.765625 C 0.640625 -37.171875 2.375 -40.816406 4.5625 -44.703125 C 6.757812 -48.597656 9.378906 -52.03125 12.421875 -55 C 15.472656 -57.976562 18.835938 -59.753906 22.515625 -60.328125 C 22.941406 -60.328125 23.222656 -60.394531 23.359375 -60.53125 C 23.503906 -60.53125 23.644531 -60.53125 23.78125 -60.53125 C 23.925781 -60.53125 24.070312 -60.53125 24.21875 -60.53125 C 26.34375 -60.53125 28.003906 -59.820312 29.203125 -58.40625 C 30.410156 -56.988281 30.875 -55.078125 30.59375 -52.671875 C 30.019531 -49.273438 28.351562 -45.769531 25.59375 -42.15625 C 22.832031 -38.550781 19.609375 -35.507812 15.921875 -33.03125 C 12.242188 -30.550781 8.707031 -29.097656 5.3125 -28.671875 C 4.320312 -28.390625 3.753906 -27.753906 3.609375 -26.765625 C 3.046875 -24.492188 3.257812 -22.015625 4.25 -19.328125 C 4.675781 -16.921875 5.488281 -15.503906 6.6875 -15.078125 C 7.894531 -14.648438 9.488281 -14.4375 11.46875 -14.4375 C 15.71875 -15.289062 20.070312 -17.164062 24.53125 -20.0625 C 28.988281 -22.96875 32.773438 -25.835938 35.890625 -28.671875 C 37.171875 -29.804688 38.445312 -31.007812 39.71875 -32.28125 C 40.988281 -33.5625 42.265625 -34.765625 43.546875 -35.890625 C 44.679688 -37.023438 45.882812 -38.191406 47.15625 -39.390625 C 48.425781 -40.597656 49.703125 -41.769531 50.984375 -42.90625 C 51.265625 -43.1875 51.613281 -43.503906 52.03125 -43.859375 C 52.457031 -44.210938 52.8125 -44.53125 53.09375 -44.8125 C 53.382812 -45.101562 53.707031 -45.421875 54.0625 -45.765625 C 54.414062 -46.117188 54.734375 -46.441406 55.015625 -46.734375 C 55.722656 -47.148438 56.289062 -47.359375 56.71875 -47.359375 C 57.28125 -47.359375 57.773438 -47.148438 58.203125 -46.734375 C 59.335938 -45.742188 59.550781 -44.679688 58.84375 -43.546875 C 58.695312 -43.117188 58.128906 -42.410156 57.140625 -41.421875 C 54.585938 -38.734375 51.398438 -35.546875 47.578125 -31.859375 C 43.753906 -28.179688 39.644531 -24.609375 35.25 -21.140625 C 30.863281 -17.671875 26.472656 -14.765625 22.078125 -12.421875 C 17.691406 -10.085938 13.660156 -8.921875 9.984375 -8.921875 Z M 8.078125 -35.046875 C 9.910156 -36.035156 12.132812 -37.519531 14.75 -39.5 C 17.375 -41.488281 19.710938 -43.648438 21.765625 -45.984375 C 23.816406 -48.316406 24.84375 -50.617188 24.84375 -52.890625 C 24.707031 -54.304688 24.070312 -54.875 22.9375 -54.59375 C 20.675781 -54.300781 18.410156 -53.09375 16.140625 -50.96875 C 13.878906 -48.851562 11.894531 -46.445312 10.1875 -43.75 C 8.488281 -41.0625 7.21875 -38.585938 6.375 -36.328125 C 6.375 -35.617188 6.515625 -35.265625 6.796875 -35.265625 C 7.503906 -34.972656 7.929688 -34.898438 8.078125 -35.046875 Z M 8.078125 -35.046875 "/></g></g></g><g fill="#481b21" fill-opacity="1"><g transform="translate(299.222519, 311.012656)"><g><path d="M 7.015625 11.25 C 5.023438 11.25 3.460938 10.1875 2.328125 8.0625 C 1.203125 5.945312 0.5 4.039062 0.21875 2.34375 C 0.0703125 1.632812 0 0.925781 0 0.21875 C 0 -0.488281 0 -1.128906 0 -1.703125 C 0 -2.410156 0 -3.007812 0 -3.5 C 0 -4 0 -4.390625 0 -4.671875 C 0.144531 -10.054688 0.535156 -15.082031 1.171875 -19.75 C 1.804688 -24.425781 2.617188 -29.03125 3.609375 -33.5625 C 3.890625 -34.695312 4.132812 -35.898438 4.34375 -37.171875 C 4.5625 -38.441406 4.175781 -39.644531 3.1875 -40.78125 C 2.757812 -41.34375 2.648438 -41.90625 2.859375 -42.46875 C 3.078125 -43.039062 3.398438 -43.539062 3.828125 -43.96875 C 5.378906 -45.945312 6.578125 -48.035156 7.421875 -50.234375 C 8.273438 -52.429688 9.054688 -54.734375 9.765625 -57.140625 C 11.328125 -61.953125 13.238281 -67.398438 15.5 -73.484375 C 17.769531 -79.578125 20.320312 -85.738281 23.15625 -91.96875 C 25.988281 -98.195312 29.03125 -104.035156 32.28125 -109.484375 C 35.539062 -114.941406 39.007812 -119.515625 42.6875 -123.203125 C 43.820312 -124.046875 44.816406 -124.46875 45.671875 -124.46875 C 45.804688 -124.46875 45.976562 -124.429688 46.1875 -124.359375 C 46.40625 -124.285156 46.726562 -124.179688 47.15625 -124.046875 C 48.144531 -123.617188 48.742188 -123.015625 48.953125 -122.234375 C 49.171875 -121.460938 49.207031 -120.648438 49.0625 -119.796875 C 48.070312 -115.546875 46.335938 -110.625 43.859375 -105.03125 C 41.378906 -99.4375 38.546875 -93.703125 35.359375 -87.828125 C 32.179688 -81.953125 28.960938 -76.359375 25.703125 -71.046875 C 22.441406 -65.734375 19.609375 -61.238281 17.203125 -57.5625 C 14.648438 -53.882812 12.628906 -49.140625 11.140625 -43.328125 C 9.660156 -37.523438 8.492188 -31.613281 7.640625 -25.59375 C 6.796875 -19.570312 6.160156 -14.367188 5.734375 -9.984375 C 5.453125 -7.859375 5.273438 -5.695312 5.203125 -3.5 C 5.128906 -1.3125 5.445312 0.84375 6.15625 2.96875 C 6.4375 4.101562 7.078125 4.671875 8.078125 4.671875 C 9.066406 4.671875 10.335938 3.75 11.890625 1.90625 C 13.453125 0.0703125 14.515625 -1.195312 15.078125 -1.90625 C 20.035156 -8.28125 25.132812 -15.039062 30.375 -22.1875 C 35.613281 -29.34375 40.570312 -36.175781 45.25 -42.6875 C 45.53125 -43.257812 46.09375 -44.144531 46.9375 -45.34375 C 47.789062 -46.550781 48.570312 -47.15625 49.28125 -47.15625 C 49.414062 -47.15625 49.910156 -47.015625 50.765625 -46.734375 C 51.753906 -46.304688 52.109375 -45.523438 51.828125 -44.390625 C 51.828125 -43.253906 51.546875 -42.40625 50.984375 -41.84375 C 50.554688 -40.988281 50.054688 -40.101562 49.484375 -39.1875 C 48.921875 -38.269531 48.359375 -37.382812 47.796875 -36.53125 C 45.523438 -33.695312 43.253906 -30.757812 40.984375 -27.71875 C 38.722656 -24.675781 36.460938 -21.523438 34.203125 -18.265625 C 31.929688 -15.003906 29.628906 -11.816406 27.296875 -8.703125 C 24.960938 -5.585938 22.660156 -2.546875 20.390625 0.421875 C 19.679688 1.554688 18.507812 3.007812 16.875 4.78125 C 15.25 6.550781 13.550781 8.070312 11.78125 9.34375 C 10.019531 10.613281 8.429688 11.25 7.015625 11.25 Z M 24.21875 -76.25 C 24.21875 -76.394531 24.285156 -76.46875 24.421875 -76.46875 C 24.421875 -76.46875 24.421875 -76.394531 24.421875 -76.25 C 26.410156 -80.21875 28.429688 -84.21875 30.484375 -88.25 C 32.535156 -92.289062 34.625 -96.289062 36.75 -100.25 L 42.484375 -111.71875 L 42.484375 -111.9375 C 42.335938 -112.082031 42.265625 -112.222656 42.265625 -112.359375 C 42.265625 -112.078125 42.335938 -111.863281 42.484375 -111.71875 C 41.628906 -112.007812 41.203125 -112.15625 41.203125 -112.15625 C 40.640625 -112.15625 39.929688 -111.585938 39.078125 -110.453125 C 36.242188 -105.640625 33.585938 -100.789062 31.109375 -95.90625 C 28.640625 -91.019531 26.410156 -85.957031 24.421875 -80.71875 C 23.710938 -78.875 23.644531 -77.382812 24.21875 -76.25 Z M 24.21875 -76.25 "/></g></g></g><g fill="#481b21" fill-opacity="1"><g transform="translate(141.00075, 227.536857)"><g><path d="M 22.890625 -22.953125 L 20.796875 -16.203125 L 20.65625 -16.203125 C 20.8125 -17.691406 20.660156 -18.894531 20.203125 -19.8125 C 19.742188 -20.726562 19.054688 -21.398438 18.140625 -21.828125 C 17.222656 -22.253906 16.148438 -22.46875 14.921875 -22.46875 L 13.671875 -22.46875 L 13.671875 -2.203125 C 13.671875 -1.453125 13.941406 -0.945312 14.484375 -0.6875 C 15.035156 -0.425781 15.816406 -0.25 16.828125 -0.15625 L 16.828125 0 L 6.03125 0 L 6.03125 -0.15625 C 7.039062 -0.25 7.816406 -0.425781 8.359375 -0.6875 C 8.910156 -0.945312 9.1875 -1.453125 9.1875 -2.203125 L 9.1875 -22.46875 C 7.5625 -22.46875 6.21875 -22.25 5.15625 -21.8125 C 4.101562 -21.375 3.210938 -20.703125 2.484375 -19.796875 C 1.765625 -18.890625 1.085938 -17.691406 0.453125 -16.203125 L 0.328125 -16.203125 L 1.40625 -22.953125 Z M 22.890625 -22.953125 "/></g></g></g><g fill="#481b21" fill-opacity="1"><g transform="translate(164.778577, 227.536857)"><g><path d="M 0.484375 0 L 0.484375 -0.15625 C 1.171875 -0.25 1.757812 -0.410156 2.25 -0.640625 C 2.738281 -0.867188 2.984375 -1.28125 2.984375 -1.875 L 2.984375 -21.09375 C 2.984375 -21.675781 2.738281 -22.082031 2.25 -22.3125 C 1.757812 -22.539062 1.171875 -22.703125 0.484375 -22.796875 L 0.484375 -22.953125 L 9.96875 -22.953125 L 9.96875 -22.796875 C 9.289062 -22.703125 8.707031 -22.539062 8.21875 -22.3125 C 7.726562 -22.082031 7.484375 -21.675781 7.484375 -21.09375 L 7.484375 -1.875 C 7.484375 -1.28125 7.726562 -0.867188 8.21875 -0.640625 C 8.707031 -0.410156 9.289062 -0.25 9.96875 -0.15625 L 9.96875 0 Z M 0.484375 0 "/></g></g></g><g fill="#481b21" fill-opacity="1"><g transform="translate(175.798434, 227.536857)"><g><path d="M 29.15625 -22.796875 C 28.476562 -22.703125 27.890625 -22.539062 27.390625 -22.3125 C 26.898438 -22.082031 26.65625 -21.675781 26.65625 -21.09375 L 26.65625 -1.875 C 26.65625 -1.28125 26.898438 -0.867188 27.390625 -0.640625 C 27.890625 -0.410156 28.476562 -0.25 29.15625 -0.15625 L 29.15625 0 L 19.671875 0 L 19.671875 -0.15625 C 20.347656 -0.25 20.929688 -0.410156 21.421875 -0.640625 C 21.921875 -0.867188 22.171875 -1.28125 22.171875 -1.875 L 22.171875 -21.25 L 13.015625 0.359375 L 3.640625 -18.359375 L 3.640625 -5.8125 C 3.640625 -4.320312 3.753906 -3.175781 3.984375 -2.375 C 4.210938 -1.582031 4.519531 -1.03125 4.90625 -0.71875 C 5.289062 -0.414062 5.703125 -0.226562 6.140625 -0.15625 L 6.140625 0 L 0.484375 0 L 0.484375 -0.15625 C 0.953125 -0.226562 1.367188 -0.363281 1.734375 -0.5625 C 2.109375 -0.757812 2.410156 -1.203125 2.640625 -1.890625 C 2.867188 -2.578125 2.984375 -3.664062 2.984375 -5.15625 L 2.984375 -19.671875 C 2.679688 -20.304688 2.335938 -20.878906 1.953125 -21.390625 C 1.566406 -21.910156 1.023438 -22.429688 0.328125 -22.953125 L 6.09375 -22.953125 L 14.828125 -5.546875 L 22.171875 -22.953125 L 29.15625 -22.953125 Z M 29.15625 -22.796875 "/></g></g></g><g fill="#481b21" fill-opacity="1"><g transform="translate(206.004446, 227.536857)"><g><path d="M 20.796875 -6.984375 L 20.921875 -6.921875 L 19.1875 0 L 18.984375 0.71875 L 17.875 0 L 0.484375 0 L 0.484375 -0.15625 C 1.171875 -0.40625 1.757812 -0.710938 2.25 -1.078125 C 2.738281 -1.453125 2.984375 -1.9375 2.984375 -2.53125 L 2.984375 -21.09375 C 2.984375 -21.675781 2.738281 -22.082031 2.25 -22.3125 C 1.757812 -22.539062 1.171875 -22.703125 0.484375 -22.796875 L 0.484375 -22.953125 L 18.53125 -22.953125 L 19.75 -17.1875 L 19.609375 -17.125 C 18.773438 -18.34375 18.019531 -19.34375 17.34375 -20.125 C 16.664062 -20.914062 15.894531 -21.5 15.03125 -21.875 C 14.164062 -22.25 13.023438 -22.4375 11.609375 -22.4375 L 7.484375 -22.4375 L 7.484375 -11.734375 L 10.234375 -11.734375 C 11.585938 -11.734375 12.6875 -11.847656 13.53125 -12.078125 C 14.375 -12.316406 15.035156 -12.71875 15.515625 -13.28125 C 15.992188 -13.851562 16.363281 -14.640625 16.625 -15.640625 L 16.625 -7.34375 C 16.363281 -8.351562 15.992188 -9.132812 15.515625 -9.6875 C 15.035156 -10.25 14.375 -10.644531 13.53125 -10.875 C 12.6875 -11.101562 11.585938 -11.21875 10.234375 -11.21875 L 7.484375 -11.21875 L 7.484375 -0.53125 L 11.8125 -0.53125 C 13.226562 -0.53125 14.4375 -0.765625 15.4375 -1.234375 C 16.445312 -1.703125 17.367188 -2.410156 18.203125 -3.359375 C 19.035156 -4.304688 19.898438 -5.515625 20.796875 -6.984375 Z M 20.796875 -6.984375 "/></g></g></g><g fill="#481b21" fill-opacity="1"><g transform="translate(227.978449, 227.536857)"><g/></g></g><g fill="#481b21" fill-opacity="1"><g transform="translate(235.095486, 227.536857)"><g><path d="M 22.890625 -22.953125 L 20.796875 -16.203125 L 20.65625 -16.203125 C 20.8125 -17.691406 20.660156 -18.894531 20.203125 -19.8125 C 19.742188 -20.726562 19.054688 -21.398438 18.140625 -21.828125 C 17.222656 -22.253906 16.148438 -22.46875 14.921875 -22.46875 L 13.671875 -22.46875 L 13.671875 -2.203125 C 13.671875 -1.453125 13.941406 -0.945312 14.484375 -0.6875 C 15.035156 -0.425781 15.816406 -0.25 16.828125 -0.15625 L 16.828125 0 L 6.03125 0 L 6.03125 -0.15625 C 7.039062 -0.25 7.816406 -0.425781 8.359375 -0.6875 C 8.910156 -0.945312 9.1875 -1.453125 9.1875 -2.203125 L 9.1875 -22.46875 C 7.5625 -22.46875 6.21875 -22.25 5.15625 -21.8125 C 4.101562 -21.375 3.210938 -20.703125 2.484375 -19.796875 C 1.765625 -18.890625 1.085938 -17.691406 0.453125 -16.203125 L 0.328125 -16.203125 L 1.40625 -22.953125 Z M 22.890625 -22.953125 "/></g></g></g><g fill="#481b21" fill-opacity="1"><g transform="translate(258.873314, 227.536857)"><g><path d="M 14.140625 -23.421875 C 15.910156 -23.421875 17.5625 -23.144531 19.09375 -22.59375 C 20.625 -22.050781 21.960938 -21.257812 23.109375 -20.21875 C 24.253906 -19.175781 25.148438 -17.914062 25.796875 -16.4375 C 26.441406 -14.96875 26.765625 -13.316406 26.765625 -11.484375 C 26.765625 -9.640625 26.441406 -7.976562 25.796875 -6.5 C 25.148438 -5.03125 24.253906 -3.773438 23.109375 -2.734375 C 21.960938 -1.703125 20.625 -0.910156 19.09375 -0.359375 C 17.5625 0.179688 15.910156 0.453125 14.140625 0.453125 C 12.347656 0.453125 10.6875 0.179688 9.15625 -0.359375 C 7.625 -0.910156 6.28125 -1.703125 5.125 -2.734375 C 3.976562 -3.773438 3.082031 -5.03125 2.4375 -6.5 C 1.789062 -7.976562 1.46875 -9.640625 1.46875 -11.484375 C 1.46875 -13.316406 1.789062 -14.96875 2.4375 -16.4375 C 3.082031 -17.914062 3.976562 -19.175781 5.125 -20.21875 C 6.28125 -21.257812 7.625 -22.050781 9.15625 -22.59375 C 10.6875 -23.144531 12.347656 -23.421875 14.140625 -23.421875 Z M 15.515625 -0.125 C 16.828125 -0.125 17.96875 -0.507812 18.9375 -1.28125 C 19.914062 -2.0625 20.671875 -3.140625 21.203125 -4.515625 C 21.734375 -5.898438 22 -7.5 22 -9.3125 C 22 -10.957031 21.773438 -12.578125 21.328125 -14.171875 C 20.878906 -15.765625 20.238281 -17.210938 19.40625 -18.515625 C 18.582031 -19.816406 17.601562 -20.859375 16.46875 -21.640625 C 15.332031 -22.429688 14.082031 -22.828125 12.71875 -22.828125 C 11.40625 -22.828125 10.265625 -22.441406 9.296875 -21.671875 C 8.328125 -20.910156 7.570312 -19.835938 7.03125 -18.453125 C 6.5 -17.078125 6.234375 -15.484375 6.234375 -13.671875 C 6.234375 -12.035156 6.457031 -10.410156 6.90625 -8.796875 C 7.351562 -7.191406 7.988281 -5.738281 8.8125 -4.4375 C 9.644531 -3.144531 10.628906 -2.101562 11.765625 -1.3125 C 12.910156 -0.519531 14.160156 -0.125 15.515625 -0.125 Z M 15.515625 -0.125 "/></g></g></g><g fill="#481b21" fill-opacity="1"><g transform="translate(111.854035, 354.140857)"><g><path d="M 21.9375 -22 L 19.9375 -15.53125 L 19.8125 -15.53125 C 19.957031 -16.957031 19.804688 -18.109375 19.359375 -18.984375 C 18.921875 -19.867188 18.257812 -20.515625 17.375 -20.921875 C 16.5 -21.328125 15.472656 -21.53125 14.296875 -21.53125 L 13.109375 -21.53125 L 13.109375 -2.109375 C 13.109375 -1.390625 13.367188 -0.90625 13.890625 -0.65625 C 14.421875 -0.40625 15.164062 -0.238281 16.125 -0.15625 L 16.125 0 L 5.78125 0 L 5.78125 -0.15625 C 6.75 -0.238281 7.492188 -0.40625 8.015625 -0.65625 C 8.535156 -0.90625 8.796875 -1.390625 8.796875 -2.109375 L 8.796875 -21.53125 C 7.242188 -21.53125 5.957031 -21.320312 4.9375 -20.90625 C 3.925781 -20.488281 3.078125 -19.84375 2.390625 -18.96875 C 1.703125 -18.101562 1.050781 -16.957031 0.4375 -15.53125 L 0.3125 -15.53125 L 1.359375 -22 Z M 21.9375 -22 "/></g></g></g><g fill="#481b21" fill-opacity="1"><g transform="translate(134.114466, 354.140857)"><g><path d="M 24.671875 -21.84375 C 24.023438 -21.757812 23.46875 -21.609375 23 -21.390625 C 22.53125 -21.171875 22.296875 -20.78125 22.296875 -20.21875 L 22.296875 -1.796875 C 22.296875 -1.222656 22.53125 -0.828125 23 -0.609375 C 23.46875 -0.390625 24.023438 -0.238281 24.671875 -0.15625 L 24.671875 0 L 15.59375 0 L 15.59375 -0.15625 C 16.238281 -0.238281 16.796875 -0.390625 17.265625 -0.609375 C 17.742188 -0.828125 17.984375 -1.222656 17.984375 -1.796875 L 17.984375 -10.59375 L 7.171875 -10.59375 L 7.171875 -1.796875 C 7.171875 -1.222656 7.40625 -0.828125 7.875 -0.609375 C 8.34375 -0.390625 8.90625 -0.238281 9.5625 -0.15625 L 9.5625 0 L 0.46875 0 L 0.46875 -0.15625 C 1.125 -0.238281 1.6875 -0.390625 2.15625 -0.609375 C 2.625 -0.828125 2.859375 -1.222656 2.859375 -1.796875 L 2.859375 -20.21875 C 2.859375 -20.78125 2.625 -21.171875 2.15625 -21.390625 C 1.6875 -21.609375 1.125 -21.757812 0.46875 -21.84375 L 0.46875 -22 L 9.5625 -22 L 9.5625 -21.84375 C 8.90625 -21.757812 8.34375 -21.609375 7.875 -21.390625 C 7.40625 -21.171875 7.171875 -20.78125 7.171875 -20.21875 L 7.171875 -11.125 L 17.984375 -11.125 L 17.984375 -20.21875 C 17.984375 -20.78125 17.742188 -21.171875 17.265625 -21.390625 C 16.796875 -21.609375 16.238281 -21.757812 15.59375 -21.84375 L 15.59375 -22 L 24.671875 -22 Z M 24.671875 -21.84375 "/></g></g></g><g fill="#481b21" fill-opacity="1"><g transform="translate(159.267494, 354.140857)"><g><path d="M 19.9375 -6.703125 L 20.0625 -6.640625 L 18.390625 0 L 18.203125 0.6875 L 17.140625 0 L 0.46875 0 L 0.46875 -0.15625 C 1.125 -0.382812 1.6875 -0.675781 2.15625 -1.03125 C 2.625 -1.394531 2.859375 -1.859375 2.859375 -2.421875 L 2.859375 -20.21875 C 2.859375 -20.78125 2.625 -21.171875 2.15625 -21.390625 C 1.6875 -21.609375 1.125 -21.757812 0.46875 -21.84375 L 0.46875 -22 L 17.765625 -22 L 18.921875 -16.46875 L 18.796875 -16.40625 C 18.003906 -17.582031 17.28125 -18.546875 16.625 -19.296875 C 15.976562 -20.054688 15.238281 -20.613281 14.40625 -20.96875 C 13.582031 -21.320312 12.488281 -21.5 11.125 -21.5 L 7.171875 -21.5 L 7.171875 -11.25 L 9.8125 -11.25 C 11.101562 -11.25 12.148438 -11.359375 12.953125 -11.578125 C 13.765625 -11.804688 14.398438 -12.191406 14.859375 -12.734375 C 15.328125 -13.273438 15.6875 -14.03125 15.9375 -15 L 15.9375 -7.046875 C 15.6875 -8.003906 15.328125 -8.75 14.859375 -9.28125 C 14.398438 -9.820312 13.765625 -10.203125 12.953125 -10.421875 C 12.148438 -10.640625 11.101562 -10.75 9.8125 -10.75 L 7.171875 -10.75 L 7.171875 -0.5 L 11.3125 -0.5 C 12.675781 -0.5 13.835938 -0.722656 14.796875 -1.171875 C 15.765625 -1.628906 16.644531 -2.3125 17.4375 -3.21875 C 18.238281 -4.132812 19.070312 -5.296875 19.9375 -6.703125 Z M 19.9375 -6.703125 "/></g></g></g><g fill="#481b21" fill-opacity="1"><g transform="translate(179.798658, 354.140857)"><g/></g></g><g fill="#481b21" fill-opacity="1"><g transform="translate(186.086915, 354.140857)"><g><path d="M 29.359375 -22 L 35.140625 -22 L 35.140625 -21.875 C 34.703125 -21.75 34.304688 -21.578125 33.953125 -21.359375 C 33.597656 -21.140625 33.253906 -20.785156 32.921875 -20.296875 C 32.597656 -19.816406 32.257812 -19.117188 31.90625 -18.203125 L 25.21875 -1.0625 L 21.9375 1.1875 L 22.03125 0.53125 L 17.328125 -11.59375 L 13.109375 -1.0625 L 9.84375 1.1875 L 9.9375 0.53125 L 2.015625 -19.875 C 1.867188 -20.289062 1.65625 -20.695312 1.375 -21.09375 C 1.101562 -21.488281 0.851562 -21.789062 0.625 -22 L 9.53125 -22 L 9.53125 -21.875 C 8.789062 -21.8125 8.179688 -21.675781 7.703125 -21.46875 C 7.222656 -21.257812 6.925781 -20.898438 6.8125 -20.390625 C 6.695312 -19.890625 6.816406 -19.171875 7.171875 -18.234375 L 13.046875 -2.640625 L 16.96875 -12.515625 L 14.109375 -19.875 C 13.960938 -20.289062 13.753906 -20.695312 13.484375 -21.09375 C 13.210938 -21.488281 12.960938 -21.789062 12.734375 -22 L 21.625 -22 L 21.625 -21.875 C 20.894531 -21.8125 20.285156 -21.675781 19.796875 -21.46875 C 19.316406 -21.257812 19.019531 -20.898438 18.90625 -20.390625 C 18.789062 -19.890625 18.910156 -19.171875 19.265625 -18.234375 L 25.15625 -2.640625 L 31.21875 -18.234375 C 31.570312 -19.148438 31.703125 -19.84375 31.609375 -20.3125 C 31.515625 -20.789062 31.265625 -21.140625 30.859375 -21.359375 C 30.453125 -21.578125 29.953125 -21.75 29.359375 -21.875 Z M 29.359375 -22 "/></g></g></g><g fill="#481b21" fill-opacity="1"><g transform="translate(221.867098, 354.140857)"><g><path d="M 13.546875 -22.453125 C 15.242188 -22.453125 16.828125 -22.1875 18.296875 -21.65625 C 19.765625 -21.132812 21.046875 -20.375 22.140625 -19.375 C 23.242188 -18.382812 24.101562 -17.179688 24.71875 -15.765625 C 25.34375 -14.347656 25.65625 -12.757812 25.65625 -11 C 25.65625 -9.238281 25.34375 -7.648438 24.71875 -6.234375 C 24.101562 -4.828125 23.242188 -3.625 22.140625 -2.625 C 21.046875 -1.625 19.765625 -0.863281 18.296875 -0.34375 C 16.828125 0.175781 15.242188 0.4375 13.546875 0.4375 C 11.828125 0.4375 10.234375 0.175781 8.765625 -0.34375 C 7.304688 -0.863281 6.023438 -1.625 4.921875 -2.625 C 3.816406 -3.625 2.957031 -4.828125 2.34375 -6.234375 C 1.726562 -7.648438 1.421875 -9.238281 1.421875 -11 C 1.421875 -12.757812 1.726562 -14.347656 2.34375 -15.765625 C 2.957031 -17.179688 3.816406 -18.382812 4.921875 -19.375 C 6.023438 -20.375 7.304688 -21.132812 8.765625 -21.65625 C 10.234375 -22.1875 11.828125 -22.453125 13.546875 -22.453125 Z M 14.875 -0.125 C 16.125 -0.125 17.210938 -0.492188 18.140625 -1.234375 C 19.078125 -1.984375 19.800781 -3.015625 20.3125 -4.328125 C 20.832031 -5.648438 21.09375 -7.179688 21.09375 -8.921875 C 21.09375 -10.492188 20.878906 -12.046875 20.453125 -13.578125 C 20.023438 -15.109375 19.410156 -16.492188 18.609375 -17.734375 C 17.816406 -18.984375 16.875 -19.984375 15.78125 -20.734375 C 14.6875 -21.492188 13.492188 -21.875 12.203125 -21.875 C 10.941406 -21.875 9.84375 -21.507812 8.90625 -20.78125 C 7.976562 -20.050781 7.253906 -19.023438 6.734375 -17.703125 C 6.222656 -16.378906 5.96875 -14.847656 5.96875 -13.109375 C 5.96875 -11.535156 6.179688 -9.976562 6.609375 -8.4375 C 7.046875 -6.894531 7.660156 -5.5 8.453125 -4.25 C 9.253906 -3.007812 10.195312 -2.007812 11.28125 -1.25 C 12.375 -0.5 13.570312 -0.125 14.875 -0.125 Z M 14.875 -0.125 "/></g></g></g><g fill="#481b21" fill-opacity="1"><g transform="translate(248.93805, 354.140857)"><g><path d="M 18.859375 -4.15625 C 19.492188 -3.3125 20.054688 -2.644531 20.546875 -2.15625 C 21.035156 -1.664062 21.519531 -1.265625 22 -0.953125 C 22.488281 -0.648438 23.003906 -0.363281 23.546875 -0.09375 L 23.546875 0 L 16.75 0 L 16.75 -0.53125 L 10.84375 -8.859375 L 7.171875 -8.859375 L 7.171875 -1.796875 C 7.171875 -1.222656 7.40625 -0.828125 7.875 -0.609375 C 8.34375 -0.390625 8.90625 -0.238281 9.5625 -0.15625 L 9.5625 0 L 0.46875 0 L 0.46875 -0.15625 C 1.125 -0.238281 1.6875 -0.390625 2.15625 -0.609375 C 2.625 -0.828125 2.859375 -1.222656 2.859375 -1.796875 L 2.859375 -20.21875 C 2.859375 -20.78125 2.625 -21.171875 2.15625 -21.390625 C 1.6875 -21.609375 1.125 -21.757812 0.46875 -21.84375 L 0.46875 -22 L 12.328125 -22 C 15.128906 -22 17.304688 -21.519531 18.859375 -20.5625 C 20.410156 -19.613281 21.1875 -18.113281 21.1875 -16.0625 C 21.1875 -14.488281 20.640625 -13.109375 19.546875 -11.921875 C 18.460938 -10.742188 16.96875 -9.894531 15.0625 -9.375 Z M 7.171875 -21.4375 L 7.171875 -10.09375 C 8.847656 -9.613281 10.515625 -9.375 12.171875 -9.375 C 13.234375 -9.375 14.113281 -9.519531 14.8125 -9.8125 C 15.519531 -10.101562 16.050781 -10.640625 16.40625 -11.421875 C 16.757812 -12.210938 16.9375 -13.332031 16.9375 -14.78125 C 16.9375 -15.613281 16.859375 -16.421875 16.703125 -17.203125 C 16.546875 -17.992188 16.25 -18.707031 15.8125 -19.34375 C 15.375 -19.988281 14.734375 -20.5 13.890625 -20.875 C 13.054688 -21.25 11.96875 -21.4375 10.625 -21.4375 Z M 7.171875 -21.4375 "/></g></g></g><g fill="#481b21" fill-opacity="1"><g transform="translate(272.173156, 354.140857)"><g><path d="M 19.234375 -6.46875 L 19.359375 -6.40625 L 17.734375 0 L 17.546875 0.6875 L 16.46875 0 L 0.46875 0 L 0.46875 -0.15625 C 1.125 -0.382812 1.6875 -0.789062 2.15625 -1.375 C 2.625 -1.96875 2.859375 -2.679688 2.859375 -3.515625 L 2.859375 -20.21875 C 2.859375 -20.78125 2.625 -21.171875 2.15625 -21.390625 C 1.6875 -21.609375 1.125 -21.757812 0.46875 -21.84375 L 0.46875 -22 L 9.875 -22 L 9.875 -21.84375 C 9.070312 -21.757812 8.421875 -21.609375 7.921875 -21.390625 C 7.421875 -21.171875 7.171875 -20.78125 7.171875 -20.21875 L 7.171875 -0.5 L 9.59375 -0.5 C 10.90625 -0.5 12.019531 -0.632812 12.9375 -0.90625 C 13.863281 -1.1875 14.664062 -1.578125 15.34375 -2.078125 C 16.03125 -2.578125 16.671875 -3.195312 17.265625 -3.9375 C 17.867188 -4.6875 18.523438 -5.53125 19.234375 -6.46875 Z M 19.234375 -6.46875 "/></g></g></g><g fill="#481b21" fill-opacity="1"><g transform="translate(292.012611, 354.140857)"><g><path d="M 10.53125 -22 C 14.59375 -22 17.679688 -21.085938 19.796875 -19.265625 C 21.921875 -17.441406 22.984375 -14.875 22.984375 -11.5625 C 22.984375 -9.09375 22.414062 -6.992188 21.28125 -5.265625 C 20.144531 -3.535156 18.59375 -2.222656 16.625 -1.328125 C 14.65625 -0.441406 12.414062 0 9.90625 0 L 0.46875 0 L 0.46875 -0.15625 C 1.125 -0.382812 1.6875 -0.675781 2.15625 -1.03125 C 2.625 -1.394531 2.859375 -1.859375 2.859375 -2.421875 L 2.859375 -20.21875 C 2.859375 -20.78125 2.625 -21.171875 2.15625 -21.390625 C 1.6875 -21.609375 1.125 -21.757812 0.46875 -21.84375 L 0.46875 -22 Z M 11.5 -0.5625 C 12.882812 -0.5625 14.09375 -0.835938 15.125 -1.390625 C 16.164062 -1.953125 16.972656 -2.898438 17.546875 -4.234375 C 18.128906 -5.578125 18.421875 -7.4375 18.421875 -9.8125 C 18.421875 -12.132812 18.097656 -14.171875 17.453125 -15.921875 C 16.816406 -17.671875 15.820312 -19.035156 14.46875 -20.015625 C 13.125 -21.003906 11.394531 -21.5 9.28125 -21.5 L 7.171875 -21.5 L 7.171875 -1.453125 C 7.773438 -1.171875 8.4375 -0.953125 9.15625 -0.796875 C 9.882812 -0.640625 10.664062 -0.5625 11.5 -0.5625 Z M 11.5 -0.5625 "/></g></g></g></svg>