<svg xmlns="http://www.w3.org/2000/svg" xmlns:xlink="http://www.w3.org/1999/xlink" width="500" zoomAndPan="magnify" viewBox="0 0 375 374.999991" height="500" preserveAspectRatio="xMidYMid meet" version="1.0"><defs><g/><clipPath id="f5dddf315b"><path d="M 2.273438 4.308594 L 373 4.308594 L 373 363.167969 L 2.273438 363.167969 Z M 2.273438 4.308594 " clip-rule="nonzero"/></clipPath><clipPath id="d7e968673b"><path d="M 2.273438 122.320312 L 2.273438 255.476562 L 186.53125 362.753906 L 187.359375 363.167969 L 372.71875 255.476562 L 372.71875 4.308594 L 2.273438 4.308594 Z M 369.960938 7.0625 L 369.960938 253.964844 L 187.496094 360 L 5.027344 253.964844 L 5.027344 7.0625 Z M 21.554688 122.320312 L 21.554688 23.585938 L 356.191406 23.585938 L 356.191406 244.046875 L 188.875 341.273438 L 21.554688 244.046875 Z M 21.554688 122.320312 " clip-rule="nonzero"/></clipPath><clipPath id="cadf0c36be"><path d="M 106.1875 110 L 263 110 L 263 273.445312 L 106.1875 273.445312 Z M 106.1875 110 " clip-rule="nonzero"/></clipPath></defs><g clip-path="url(#f5dddf315b)"><g clip-path="url(#d7e968673b)"><path fill="#562a2f" d="M 2.273438 363.167969 L 2.273438 4.308594 L 372.132812 4.308594 L 372.132812 363.167969 Z M 2.273438 363.167969 " fill-opacity="1" fill-rule="nonzero"/></g></g><g clip-path="url(#cadf0c36be)"><path fill="#ffffff" d="M 220.519531 127.6875 C 220.042969 126.949219 220.042969 125.980469 220.273438 125.257812 C 220.519531 124.042969 221.734375 122.347656 225.613281 122.347656 C 229.738281 122.59375 237.746094 122.347656 241.625 122.347656 C 242.347656 122.347656 242.839844 122.347656 243.070312 122.347656 C 244.289062 120.65625 247.6875 116.28125 248.660156 115.066406 C 250.597656 112.402344 254.230469 109.726562 257.140625 111.433594 C 259.574219 112.882812 259.574219 115.804688 257.140625 120.164062 C 255.941406 122.347656 243.070312 140.542969 239.929688 144.898438 C 239.929688 145.144531 240.160156 145.871094 240.40625 146.609375 C 240.652344 147.578125 241.132812 149.023438 241.132812 149.515625 C 241.378906 150.488281 241.871094 152.671875 240.40625 154.121094 C 239.929688 154.597656 239.191406 155.089844 238.222656 155.089844 C 237.746094 155.089844 237.019531 154.84375 236.527344 154.597656 L 230.957031 149.515625 C 230.21875 148.777344 230.21875 147.808594 230.957031 147.085938 C 231.679688 146.363281 232.648438 146.363281 233.375 147.085938 L 237.992188 151.210938 C 237.992188 150.964844 237.992188 150.964844 237.992188 150.71875 C 237.746094 150.242188 237.5 149.023438 237.253906 147.808594 C 236.773438 146.363281 236.773438 145.871094 236.773438 145.625 C 236.773438 145.144531 236.527344 144.175781 237.253906 143.453125 C 241.378906 137.863281 253.507812 120.65625 254.476562 118.699219 C 256.171875 115.804688 255.941406 114.820312 255.695312 114.589844 C 255.203125 114.34375 253.261719 115.3125 251.8125 117.253906 C 250.597656 118.945312 245.503906 125.257812 245.503906 125.257812 C 245.027344 125.75 244.535156 125.980469 243.808594 125.980469 C 243.808594 125.980469 242.839844 125.980469 241.625 125.980469 C 237.746094 125.980469 229.492188 125.980469 225.613281 125.980469 C 225.121094 125.980469 224.644531 125.980469 224.398438 126.226562 C 227.554688 126.949219 235.558594 129.136719 240.160156 130.351562 C 241.132812 130.597656 241.625 131.570312 241.378906 132.539062 C 241.132812 133.507812 240.160156 133.984375 239.191406 133.738281 C 233.867188 132.292969 223.429688 129.628906 222.460938 129.382812 C 221.734375 128.890625 221.011719 128.414062 220.519531 127.6875 Z M 254.230469 130.351562 C 256.417969 135.203125 258.601562 139.804688 260.789062 144.421875 C 261.757812 146.363281 261.511719 148.300781 260.296875 150.488281 C 259.820312 151.210938 259.328125 151.457031 258.601562 151.703125 L 258.355469 151.703125 C 257.878906 151.703125 257.140625 151.457031 256.664062 150.964844 C 256.417969 150.71875 256.417969 150.71875 256.171875 150.488281 C 254.476562 148.300781 252.785156 146.363281 251.320312 144.175781 C 249.875 142.238281 248.414062 140.542969 246.964844 138.601562 C 246.472656 137.863281 246.472656 136.664062 247.195312 136.171875 C 247.933594 135.695312 249.136719 135.695312 249.628906 136.417969 C 251.074219 138.355469 252.539062 140.296875 254 141.992188 C 255.203125 143.683594 256.664062 145.390625 258.109375 147.332031 C 258.109375 146.839844 258.109375 146.363281 257.878906 146.117188 C 255.695312 141.511719 253.507812 136.894531 251.320312 132.046875 C 250.84375 131.078125 251.320312 130.105469 252.292969 129.628906 C 252.785156 129.136719 254 129.628906 254.230469 130.351562 Z M 172.015625 176.195312 C 172.015625 175.222656 172.738281 174.5 173.707031 174.5 L 184.621094 174.5 C 201.125 174.5 216.640625 167.21875 227.078125 154.367188 C 227.800781 153.628906 228.769531 153.398438 229.492188 154.121094 C 230.21875 154.84375 230.464844 155.8125 229.738281 156.550781 C 218.824219 170.128906 202.324219 177.886719 184.867188 177.886719 L 173.953125 177.886719 C 172.984375 177.886719 172.015625 177.164062 172.015625 176.195312 Z M 120.339844 253.085938 C 119.371094 253.085938 118.644531 252.359375 118.644531 251.390625 C 118.644531 250.40625 119.371094 249.683594 120.339844 249.683594 L 149.695312 249.683594 C 150.664062 249.683594 151.386719 250.40625 151.386719 251.390625 C 151.386719 252.359375 150.664062 253.085938 149.695312 253.085938 Z M 155.035156 201.410156 C 155.035156 202.394531 154.296875 203.117188 153.328125 203.117188 L 120.339844 203.117188 C 119.371094 203.117188 118.644531 202.394531 118.644531 201.410156 C 118.644531 200.441406 119.371094 199.714844 120.339844 199.714844 L 153.328125 199.714844 C 154.296875 199.714844 155.035156 200.441406 155.035156 201.410156 Z M 122.769531 270.542969 C 121.078125 270.542969 119.617188 269.339844 119.371094 267.632812 L 126.402344 267.632812 C 126.171875 269.339844 124.710938 270.542969 122.769531 270.542969 Z M 126.402344 150.488281 L 127.375 150.488281 L 127.375 183.230469 L 126.402344 183.230469 Z M 128.113281 141.019531 L 149.695312 141.019531 C 150.664062 141.019531 151.386719 141.992188 151.386719 142.960938 L 151.386719 146.839844 L 126.402344 146.839844 L 126.402344 142.960938 C 126.402344 141.757812 127.140625 141.019531 128.113281 141.019531 Z M 150.664062 183.230469 L 150.664062 150.488281 L 151.632812 150.488281 L 151.632812 183.230469 Z M 147.03125 150.488281 L 147.03125 183.230469 L 131.023438 183.230469 L 131.023438 150.488281 Z M 150.664062 264 L 117.199219 264 C 113.320312 264 109.917969 260.84375 109.917969 256.71875 L 109.917969 193.664062 C 109.917969 189.773438 113.074219 186.382812 117.199219 186.382812 L 161.824219 186.382812 C 165.703125 186.382812 169.105469 189.292969 169.105469 193.171875 L 169.105469 196.558594 C 169.105469 197.542969 169.828125 198.269531 170.796875 198.269531 C 171.769531 198.269531 172.492188 197.542969 172.492188 196.558594 L 172.492188 193.171875 C 172.492188 187.601562 167.644531 182.984375 161.824219 182.984375 L 155.265625 182.984375 L 155.265625 142.960938 C 155.265625 140.050781 152.851562 137.632812 149.941406 137.632812 L 128.34375 137.632812 C 125.433594 137.632812 123.015625 140.050781 123.015625 142.960938 L 123.015625 183.230469 L 117.429688 183.230469 C 111.609375 183.230469 106.761719 188.078125 106.761719 193.898438 L 106.761719 256.964844 C 106.761719 262.289062 110.886719 266.660156 115.980469 267.386719 C 116.214844 271.035156 119.371094 273.941406 123.015625 273.941406 C 126.648438 273.941406 129.804688 271.035156 130.050781 267.386719 L 150.910156 267.386719 C 151.878906 267.386719 152.605469 266.660156 152.605469 265.691406 C 152.605469 264.96875 151.632812 264 150.664062 264 Z M 233.128906 252.59375 L 230.464844 252.59375 L 230.464844 250.175781 L 233.128906 250.175781 Z M 234.835938 246.773438 L 228.769531 246.773438 C 227.800781 246.773438 227.078125 247.496094 227.078125 248.46875 L 227.078125 254.300781 C 227.078125 255.269531 227.800781 255.992188 228.769531 255.992188 L 234.835938 255.992188 C 235.804688 255.992188 236.527344 255.269531 236.527344 254.300781 L 236.527344 248.46875 C 236.527344 247.496094 235.804688 246.773438 234.835938 246.773438 Z M 216.640625 239.015625 L 213.976562 239.015625 L 213.976562 236.582031 L 216.640625 236.582031 Z M 218.332031 232.949219 L 212.269531 232.949219 C 211.300781 232.949219 210.574219 233.6875 210.574219 234.65625 L 210.574219 240.476562 C 210.574219 241.445312 211.300781 242.171875 212.269531 242.171875 L 218.332031 242.171875 C 219.304688 242.171875 220.042969 241.445312 220.042969 240.476562 L 220.042969 234.65625 C 220.042969 233.921875 219.304688 232.949219 218.332031 232.949219 Z M 233.128906 241.925781 L 227.308594 241.925781 L 227.308594 236.335938 L 233.128906 236.335938 Z M 234.835938 232.949219 L 225.613281 232.949219 C 224.644531 232.949219 223.921875 233.6875 223.921875 234.65625 L 223.921875 243.632812 C 223.921875 244.601562 224.644531 245.3125 225.613281 245.3125 L 234.835938 245.3125 C 235.804688 245.3125 236.527344 244.601562 236.527344 243.632812 L 236.527344 234.65625 C 236.527344 233.921875 235.804688 232.949219 234.835938 232.949219 Z M 233.128906 227.363281 L 227.308594 227.363281 L 229.246094 225.667969 C 229.984375 224.945312 229.984375 223.976562 229.246094 223.253906 C 228.523438 222.515625 227.554688 222.515625 226.832031 223.253906 L 222.707031 227.363281 L 220.765625 227.363281 L 224.398438 223.730469 C 225.121094 223.007812 225.121094 222.035156 224.398438 221.3125 C 223.675781 220.574219 222.707031 220.574219 221.980469 221.3125 L 215.917969 227.363281 L 214.453125 227.363281 L 214.453125 219.125 L 233.621094 219.125 L 233.621094 227.363281 Z M 234.835938 215.726562 L 212.269531 215.726562 C 211.300781 215.726562 210.574219 216.449219 210.574219 217.417969 L 210.574219 229.316406 C 210.574219 230.285156 211.300781 231.011719 212.269531 231.011719 L 234.835938 231.011719 C 235.804688 231.011719 236.527344 230.285156 236.527344 229.316406 L 236.527344 217.417969 C 236.527344 216.449219 235.804688 215.726562 234.835938 215.726562 Z M 245.996094 209.90625 L 245.996094 264.246094 C 245.996094 265.214844 245.257812 265.9375 244.289062 265.9375 C 243.316406 265.9375 242.59375 265.214844 242.59375 264.246094 L 242.59375 209.90625 C 242.59375 208.9375 243.316406 208.210938 244.289062 208.210938 C 245.257812 208.210938 245.996094 208.9375 245.996094 209.90625 Z M 176.863281 209.90625 L 176.863281 264.246094 C 176.863281 265.214844 176.125 265.9375 175.171875 265.9375 C 174.199219 265.9375 173.460938 265.214844 173.460938 264.246094 L 173.460938 209.90625 C 173.460938 208.9375 174.199219 208.210938 175.171875 208.210938 C 176.125 208.210938 176.863281 208.9375 176.863281 209.90625 Z M 258.601562 261.320312 C 258.601562 265.9375 254.96875 269.585938 250.351562 269.585938 L 169.828125 269.585938 C 165.226562 269.585938 161.578125 265.9375 161.578125 261.320312 L 161.578125 214.523438 C 161.578125 209.90625 165.226562 206.273438 169.828125 206.273438 L 250.597656 206.273438 C 255.203125 206.273438 258.847656 209.90625 258.847656 214.523438 L 258.847656 261.320312 Z M 223.921875 202.871094 L 197.722656 202.871094 L 197.722656 198.761719 C 197.722656 197.777344 198.691406 196.804688 199.660156 196.804688 L 221.980469 196.804688 C 222.953125 196.804688 223.921875 197.777344 223.921875 198.761719 Z M 191.65625 196.082031 C 191.65625 193.417969 193.84375 191.234375 196.503906 191.234375 L 225.121094 191.234375 C 227.800781 191.234375 229.984375 193.417969 229.984375 196.082031 L 229.984375 202.871094 L 227.554688 202.871094 L 227.554688 198.761719 C 227.554688 195.835938 225.121094 193.417969 222.214844 193.417969 L 199.90625 193.417969 C 196.996094 193.417969 194.566406 195.835938 194.566406 198.761719 L 194.566406 202.871094 L 191.65625 202.871094 Z M 250.597656 202.871094 L 233.375 202.871094 L 233.375 196.082031 C 233.375 191.480469 229.738281 187.832031 225.121094 187.832031 L 196.261719 187.832031 C 191.65625 187.832031 188.023438 191.480469 188.023438 196.082031 L 188.023438 202.871094 L 169.828125 202.871094 C 163.519531 202.871094 158.191406 208.210938 158.191406 214.523438 L 158.191406 261.320312 C 158.191406 267.632812 163.519531 272.972656 169.828125 272.972656 L 250.597656 272.972656 C 256.910156 272.972656 262.234375 267.632812 262.234375 261.320312 L 262.234375 214.523438 C 262.234375 207.964844 256.910156 202.871094 250.597656 202.871094 " fill-opacity="1" fill-rule="nonzero"/></g><g fill="#ffffff" fill-opacity="1"><g transform="translate(69.701792, 73.263501)"><g><path d="M 13.875 0 L 8.0625 0 L 8.0625 -23.28125 L 0.8125 -23.28125 L 0.8125 -29.0625 L 21.125 -29.0625 L 21.125 -23.28125 L 13.875 -23.28125 Z M 13.875 0 "/></g></g></g><g fill="#ffffff" fill-opacity="1"><g transform="translate(95.49619, 73.263501)"><g><path d="M 17.75 0 L 11.890625 -11.109375 L 9.078125 -11.109375 L 9.078125 0 L 3.25 0 L 3.25 -29.109375 L 14.734375 -29.109375 C 16.472656 -29.109375 17.945312 -28.75 19.15625 -28.03125 C 20.363281 -27.3125 21.304688 -26.375 21.984375 -25.21875 C 22.660156 -24.0625 23.078125 -22.8125 23.234375 -21.46875 C 23.398438 -20.125 23.300781 -18.804688 22.9375 -17.515625 C 22.570312 -16.234375 21.945312 -15.097656 21.0625 -14.109375 C 20.175781 -13.117188 19.015625 -12.414062 17.578125 -12 L 24.34375 0 Z M 9.078125 -16.765625 L 14.203125 -16.765625 C 14.992188 -16.765625 15.625 -16.984375 16.09375 -17.421875 C 16.570312 -17.859375 16.890625 -18.398438 17.046875 -19.046875 C 17.210938 -19.703125 17.210938 -20.351562 17.046875 -21 C 16.890625 -21.65625 16.570312 -22.195312 16.09375 -22.625 C 15.625 -23.0625 14.992188 -23.28125 14.203125 -23.28125 L 9.078125 -23.28125 Z M 9.078125 -16.765625 "/></g></g></g><g fill="#ffffff" fill-opacity="1"><g transform="translate(123.97562, 73.263501)"><g><path d="M 0.65625 0 L 12.90625 -30.15625 L 13.515625 -30.15625 L 25.765625 0 L 19.21875 0 L 18.03125 -3.140625 L 8.390625 -3.140625 L 7.25 0 Z M 10.5 -8.59375 L 15.875 -8.59375 L 13.234375 -16.15625 Z M 10.5 -8.59375 "/></g></g></g><g fill="#ffffff" fill-opacity="1"><g transform="translate(154.082327, 73.263501)"><g><path d="M 12.296875 0.609375 L 0.25 -29.109375 L 6.953125 -29.109375 L 10.828125 -19.421875 L 12.9375 -13.390625 L 15.015625 -19.21875 L 18.921875 -29.109375 L 25.640625 -29.109375 L 13.59375 0.609375 Z M 12.296875 0.609375 "/></g></g></g><g fill="#ffffff" fill-opacity="1"><g transform="translate(183.538142, 73.263501)"><g><path d="M 18.3125 0 L 3.25 0 L 3.25 -29.109375 L 17.828125 -29.109375 L 17.828125 -23.28125 L 9.078125 -23.28125 L 9.078125 -17.46875 L 16.734375 -17.46875 L 16.734375 -11.640625 L 9.078125 -11.640625 L 9.078125 -5.828125 L 18.3125 -5.828125 Z M 18.3125 0 "/></g></g></g><g fill="#ffffff" fill-opacity="1"><g transform="translate(207.583224, 73.263501)"><g><path d="M 3.25 -29.109375 L 9.078125 -29.109375 L 9.078125 -5.828125 L 18.3125 -5.828125 L 18.3125 0 L 3.25 0 Z M 3.25 -29.109375 "/></g></g></g><g fill="#ffffff" fill-opacity="1"><g transform="translate(231.180784, 73.263501)"><g><path d="M 18.3125 0 L 3.25 0 L 3.25 -29.109375 L 17.828125 -29.109375 L 17.828125 -23.28125 L 9.078125 -23.28125 L 9.078125 -17.46875 L 16.734375 -17.46875 L 16.734375 -11.640625 L 9.078125 -11.640625 L 9.078125 -5.828125 L 18.3125 -5.828125 Z M 18.3125 0 "/></g></g></g><g fill="#ffffff" fill-opacity="1"><g transform="translate(255.225866, 73.263501)"><g><path d="M 17.75 0 L 11.890625 -11.109375 L 9.078125 -11.109375 L 9.078125 0 L 3.25 0 L 3.25 -29.109375 L 14.734375 -29.109375 C 16.472656 -29.109375 17.945312 -28.75 19.15625 -28.03125 C 20.363281 -27.3125 21.304688 -26.375 21.984375 -25.21875 C 22.660156 -24.0625 23.078125 -22.8125 23.234375 -21.46875 C 23.398438 -20.125 23.300781 -18.804688 22.9375 -17.515625 C 22.570312 -16.234375 21.945312 -15.097656 21.0625 -14.109375 C 20.175781 -13.117188 19.015625 -12.414062 17.578125 -12 L 24.34375 0 Z M 9.078125 -16.765625 L 14.203125 -16.765625 C 14.992188 -16.765625 15.625 -16.984375 16.09375 -17.421875 C 16.570312 -17.859375 16.890625 -18.398438 17.046875 -19.046875 C 17.210938 -19.703125 17.210938 -20.351562 17.046875 -21 C 16.890625 -21.65625 16.570312 -22.195312 16.09375 -22.625 C 15.625 -23.0625 14.992188 -23.28125 14.203125 -23.28125 L 9.078125 -23.28125 Z M 9.078125 -16.765625 "/></g></g></g><g fill="#ffffff" fill-opacity="1"><g transform="translate(283.705301, 73.263501)"><g><path d="M 1.90625 -1.875 L 2.640625 -7.984375 C 3.753906 -7.191406 4.859375 -6.625 5.953125 -6.28125 C 7.054688 -5.945312 8.054688 -5.75 8.953125 -5.6875 C 9.847656 -5.632812 10.515625 -5.625 10.953125 -5.65625 C 11.816406 -5.707031 12.550781 -6.007812 13.15625 -6.5625 C 13.769531 -7.125 14.039062 -7.800781 13.96875 -8.59375 C 13.90625 -9.425781 13.585938 -10.0625 13.015625 -10.5 C 12.453125 -10.9375 11.765625 -11.289062 10.953125 -11.5625 C 9.429688 -12.132812 8.007812 -12.789062 6.6875 -13.53125 C 5.375 -14.28125 4.316406 -15.207031 3.515625 -16.3125 C 2.710938 -17.425781 2.3125 -18.800781 2.3125 -20.4375 C 2.3125 -22.0625 2.65625 -23.53125 3.34375 -24.84375 C 4.039062 -26.164062 5.015625 -27.21875 6.265625 -28 C 7.515625 -28.789062 8.941406 -29.226562 10.546875 -29.3125 C 11.304688 -29.363281 12.234375 -29.332031 13.328125 -29.21875 C 14.429688 -29.113281 15.914062 -28.734375 17.78125 -28.078125 L 17.046875 -22.46875 C 15.453125 -23.113281 14.175781 -23.484375 13.21875 -23.578125 C 12.269531 -23.679688 11.566406 -23.71875 11.109375 -23.6875 C 10.078125 -23.632812 9.320312 -23.28125 8.84375 -22.625 C 8.375 -21.976562 8.164062 -21.25 8.21875 -20.4375 C 8.300781 -19.625 8.65625 -19.003906 9.28125 -18.578125 C 9.90625 -18.160156 10.640625 -17.800781 11.484375 -17.5 C 12.992188 -16.957031 14.382812 -16.285156 15.65625 -15.484375 C 16.9375 -14.679688 17.960938 -13.71875 18.734375 -12.59375 C 19.515625 -11.46875 19.90625 -10.132812 19.90625 -8.59375 C 19.90625 -6.988281 19.550781 -5.535156 18.84375 -4.234375 C 18.132812 -2.929688 17.125 -1.882812 15.8125 -1.09375 C 14.5 -0.3125 12.929688 0.132812 11.109375 0.25 C 10.566406 0.269531 9.828125 0.242188 8.890625 0.171875 C 7.953125 0.109375 6.882812 -0.078125 5.6875 -0.390625 C 4.5 -0.703125 3.238281 -1.195312 1.90625 -1.875 Z M 1.90625 -1.875 "/></g></g></g><g fill="#ffffff" fill-opacity="1"><g transform="translate(119.048318, 110.516878)"><g><path d="M 6.3125 0 L 2.265625 0 L 2.265625 -20.203125 L 10.21875 -20.203125 C 11.34375 -20.203125 12.304688 -19.972656 13.109375 -19.515625 C 13.910156 -19.066406 14.546875 -18.472656 15.015625 -17.734375 C 15.492188 -17.003906 15.8125 -16.191406 15.96875 -15.296875 C 16.132812 -14.398438 16.132812 -13.507812 15.96875 -12.625 C 15.8125 -11.738281 15.492188 -10.925781 15.015625 -10.1875 C 14.535156 -9.445312 13.894531 -8.847656 13.09375 -8.390625 C 12.289062 -7.941406 11.332031 -7.71875 10.21875 -7.71875 L 6.3125 -7.71875 Z M 6.3125 -11.65625 L 9.875 -11.65625 C 10.425781 -11.65625 10.859375 -11.804688 11.171875 -12.109375 C 11.492188 -12.410156 11.710938 -12.785156 11.828125 -13.234375 C 11.941406 -13.691406 11.941406 -14.144531 11.828125 -14.59375 C 11.710938 -15.050781 11.492188 -15.429688 11.171875 -15.734375 C 10.859375 -16.035156 10.425781 -16.1875 9.875 -16.1875 L 6.3125 -16.1875 Z M 6.3125 -11.65625 "/></g></g></g><g fill="#ffffff" fill-opacity="1"><g transform="translate(136.089974, 110.516878)"><g><path d="M 2.265625 -20.234375 L 6.3125 -20.234375 L 6.3125 -4.046875 L 12.734375 -4.046875 L 12.734375 0 L 2.265625 0 Z M 2.265625 -20.234375 "/></g></g></g><g fill="#ffffff" fill-opacity="1"><g transform="translate(150.022881, 110.516878)"><g><path d="M 0.453125 0 L 8.96875 -20.96875 L 9.390625 -20.96875 L 17.90625 0 L 13.359375 0 L 12.53125 -2.171875 L 5.828125 -2.171875 L 5.03125 0 Z M 7.296875 -5.96875 L 11.03125 -5.96875 L 9.203125 -11.234375 Z M 7.296875 -5.96875 "/></g></g></g><g fill="#ffffff" fill-opacity="1"><g transform="translate(168.477609, 110.516878)"><g><path d="M 6.3125 -11 L 6.3125 0 L 2.265625 0 L 2.265625 -20.65625 L 3.34375 -20.65625 L 13.546875 -8.765625 L 13.546875 -20.203125 L 17.625 -20.203125 L 17.625 0.421875 L 16.546875 0.421875 Z M 6.3125 -11 "/></g></g></g><g fill="#ffffff" fill-opacity="1"><g transform="translate(188.373687, 110.516878)"><g><path d="M 6.3125 -11 L 6.3125 0 L 2.265625 0 L 2.265625 -20.65625 L 3.34375 -20.65625 L 13.546875 -8.765625 L 13.546875 -20.203125 L 17.625 -20.203125 L 17.625 0.421875 L 16.546875 0.421875 Z M 6.3125 -11 "/></g></g></g><g fill="#ffffff" fill-opacity="1"><g transform="translate(208.269765, 110.516878)"><g><path d="M 12.734375 0 L 2.265625 0 L 2.265625 -20.234375 L 12.390625 -20.234375 L 12.390625 -16.1875 L 6.3125 -16.1875 L 6.3125 -12.140625 L 11.625 -12.140625 L 11.625 -8.09375 L 6.3125 -8.09375 L 6.3125 -4.046875 L 12.734375 -4.046875 Z M 12.734375 0 "/></g></g></g><g fill="#ffffff" fill-opacity="1"><g transform="translate(222.51356, 110.516878)"><g><path d="M 12.34375 0 L 8.265625 -7.71875 L 6.3125 -7.71875 L 6.3125 0 L 2.265625 0 L 2.265625 -20.234375 L 10.25 -20.234375 C 11.445312 -20.234375 12.46875 -19.984375 13.3125 -19.484375 C 14.15625 -18.984375 14.8125 -18.332031 15.28125 -17.53125 C 15.75 -16.726562 16.039062 -15.859375 16.15625 -14.921875 C 16.269531 -13.992188 16.195312 -13.082031 15.9375 -12.1875 C 15.6875 -11.289062 15.253906 -10.492188 14.640625 -9.796875 C 14.023438 -9.109375 13.21875 -8.625 12.21875 -8.34375 L 16.921875 0 Z M 6.3125 -11.65625 L 9.875 -11.65625 C 10.425781 -11.65625 10.863281 -11.804688 11.1875 -12.109375 C 11.519531 -12.410156 11.742188 -12.785156 11.859375 -13.234375 C 11.972656 -13.691406 11.972656 -14.144531 11.859375 -14.59375 C 11.742188 -15.050781 11.519531 -15.429688 11.1875 -15.734375 C 10.863281 -16.035156 10.425781 -16.1875 9.875 -16.1875 L 6.3125 -16.1875 Z M 6.3125 -11.65625 "/></g></g></g></svg>